#!OML:ASF F:\VICON\USERDATA\INSTALL\rory3\rory3.ASF
:FULLY-SPECIFIED
:DEGREES
346
root 0.823373 17.7447 -17.3226 4.32559 -1.82811 0.43633
lowerback 7.655 -0.276921 -1.05044
upperback 0.286236 -0.393336 1.62704
thorax -3.9794 -0.161453 2.32023
lowerneck -20.5496 -4.10025 -9.62208
upperneck 14.6482 -4.13877 7.08894
head 8.26953 -1.78409 3.42073
rclavicle 6.4605e-015 -1.55052e-014
rhumerus -40.5675 -16.9578 -68.3148
rradius 34.5762
rwrist 2.22658
rhand -14.8601 12.5201
rfingers 7.12502
rthumb 11.2997 -17.1555
lclavicle 6.4605e-015 -1.55052e-014
lhumerus -39.9145 17.0693 75.3796
lradius 30.3273
lwrist -3.73696
lhand -18.318 24.8723
lfingers 7.12502
lthumb 7.9634 54.7023
rfemur -8.43577 2.64693 24.5344
rtibia 21.0078
rfoot -11.9728 -9.40859
rtoes 8.45416
lfemur -11.6918 -4.38635 -19.3878
ltibia 24.04
lfoot -12.7958 5.53284
ltoes 0.618811
347
root 0.816031 17.751 -17.3255 4.32037 -1.56138 0.285906
lowerback 7.65305 -0.307713 -0.82724
upperback 0.304481 -0.415108 1.62275
thorax -3.95986 -0.176702 2.19206
lowerneck -20.6303 -4.14384 -9.40676
upperneck 14.6511 -4.22603 6.94525
head 8.28375 -1.82606 3.32381
rclavicle 1.46604e-014 7.15625e-015
rhumerus -40.4985 -17.4114 -68.1586
rradius 34.5046
rwrist 1.82524
rhand -14.7471 12.7891
rfingers 7.12502
rthumb 11.4087 -16.8805
lclavicle 1.46604e-014 7.15625e-015
lhumerus -39.6241 16.5788 75.5365
lradius 30.3497
lwrist -3.56488
lhand -18.7019 23.3326
lfingers 7.12502
lthumb 7.59293 53.1763
rfemur -8.24306 2.59043 24.746
rtibia 20.6473
rfoot -11.8058 -9.57197
rtoes 8.97192
lfemur -11.7872 -4.5174 -19.202
ltibia 24.1278
lfoot -12.7249 5.5381
ltoes 0.32926
348
root 0.809153 17.7524 -17.33 4.35919 -1.36043 0.080727
lowerback 7.64412 -0.319552 -0.589217
upperback 0.292429 -0.409058 1.64439
thorax -3.9691 -0.177713 2.07969
lowerneck -20.6496 -4.1764 -9.20544
upperneck 14.5966 -4.30623 6.84478
head 8.26856 -1.86194 3.24483
rclavicle -7.35503e-015 -6.75868e-015
rhumerus -40.4704 -17.8945 -67.9933
rradius 34.4651
rwrist 1.61615
rhand -14.5899 12.9224
rfingers 7.12502
rthumb 11.5603 -16.7388
lclavicle -7.35503e-015 -6.75868e-015
lhumerus -39.2952 16.2175 75.6418
lradius 30.3448
lwrist -3.58164
lhand -18.5616 22.875
lfingers 7.12502
lthumb 7.72829 52.7138
rfemur -8.14351 2.53926 25.0413
rtibia 20.3583
rfoot -11.6245 -9.87483
rtoes 7.32326
lfemur -11.9203 -4.65578 -18.9496
ltibia 24.1152
lfoot -12.6188 5.58934
ltoes 0.411313
349
root 0.802276 17.7491 -17.3314 4.33278 -1.25359 -0.00273754
lowerback 7.63137 -0.305431 -0.567328
upperback 0.326617 -0.386344 1.70315
thorax -3.92715 -0.166874 2.12545
lowerneck -20.7574 -4.18901 -9.17993
upperneck 14.619 -4.32258 6.84813
head 8.29538 -1.86593 3.23914
rclavicle -4.42296e-015 -3.57812e-015
rhumerus -40.4205 -18.1811 -67.8436
rradius 34.5959
rwrist 1.30786
rhand -14.4402 12.9511
rfingers 7.12502
rthumb 11.7046 -16.702
lclavicle -4.42296e-015 -3.57812e-015
lhumerus -38.9958 15.8835 75.8838
lradius 30.4711
lwrist -3.57758
lhand -18.5381 23.1546
lfingers 7.12502
lthumb 7.751 52.9926
rfemur -8.02204 2.46249 25.1887
rtibia 20.1688
rfoot -11.5136 -10.0103
rtoes 6.11428
lfemur -11.932 -4.67269 -18.8336
ltibia 24.0034
lfoot -12.4628 5.55596
ltoes 0.28186
350
root 0.800289 17.7558 -17.3253 4.30015 -1.20061 0.213512
lowerback 7.61276 -0.258961 -0.720309
upperback 0.331347 -0.340565 1.63578
thorax -3.91317 -0.14211 2.13652
lowerneck -20.8429 -4.28064 -9.27417
upperneck 14.633 -4.43739 6.97369
head 8.33001 -1.91102 3.28142
rclavicle 6.90777e-015 -4.77083e-015
rhumerus -40.4254 -18.3871 -67.7276
rradius 34.7545
rwrist 1.10038
rhand -14.2398 13.3798
rfingers 7.12502
rthumb 11.8979 -16.2621
lclavicle 6.90777e-015 -4.77083e-015
lhumerus -38.861 15.2882 76.2032
lradius 30.9237
lwrist -3.46411
lhand -18.7706 23.6751
lfingers 7.12502
lthumb 7.52658 53.5212
rfemur -7.92672 2.33149 24.9181
rtibia 20.07
rfoot -11.6605 -9.80825
rtoes 7.45689
lfemur -11.8094 -4.78042 -19.0779
ltibia 23.8259
lfoot -12.3314 5.60856
ltoes 0.0077819
351
root 0.800485 17.7638 -17.3184 4.34825 -1.04901 0.447448
lowerback 7.51411 -0.279329 -0.825545
upperback 0.2457 -0.379558 1.54779
thorax -3.94495 -0.159438 2.10837
lowerneck -20.608 -4.28701 -9.31384
upperneck 14.4802 -4.46985 7.07522
head 8.24491 -1.92198 3.31837
rclavicle 2.48481e-016 4.37326e-015
rhumerus -40.4408 -18.4761 -67.625
rradius 34.7636
rwrist 1.17265
rhand -14.1914 13.7383
rfingers 7.12502
rthumb 11.9445 -15.9009
lclavicle 2.48481e-016 4.37326e-015
lhumerus -38.9558 14.6477 76.4159
lradius 31.5055
lwrist -3.38191
lhand -18.5741 23.7698
lfingers 7.12502
lthumb 7.7162 53.609
rfemur -7.92669 2.08138 24.6161
rtibia 20.028
rfoot -11.8598 -9.56579
rtoes 8.75323
lfemur -11.715 -4.78758 -19.3264
ltibia 23.6021
lfoot -12.2674 5.41904
ltoes -0.279813
352
root 0.797001 17.7673 -17.3134 4.41518 -0.946529 0.499191
lowerback 7.32935 -0.313223 -0.901263
upperback 0.171455 -0.428403 1.59565
thorax -3.91538 -0.181606 2.20454
lowerneck -20.4071 -4.23003 -9.3496
upperneck 14.4152 -4.39741 7.07484
head 8.18328 -1.89343 3.33462
rclavicle -4.82053e-015 1.43125e-014
rhumerus -40.4381 -18.392 -67.5126
rradius 34.9216
rwrist 1.42544
rhand -14.0115 13.6056
rfingers 7.12502
rthumb 12.1181 -16.0235
lclavicle -4.82053e-015 1.43125e-014
lhumerus -39.1276 14.3675 76.5812
lradius 31.9638
lwrist -3.40351
lhand -18.7278 22.1429
lfingers 7.12502
lthumb 7.56793 51.9875
rfemur -7.97473 1.96033 24.5693
rtibia 20.0309
rfoot -11.8866 -9.5314
rtoes 8.33426
lfemur -11.6591 -4.67604 -19.3498
ltibia 23.3644
lfoot -12.2224 5.13587
ltoes -0.166436
353
root 0.790253 17.771 -17.3066 4.45551 -0.903237 0.416272
lowerback 7.1329 -0.315999 -0.864864
upperback 0.175911 -0.426271 1.66326
thorax -3.80036 -0.181739 2.25165
lowerneck -20.503 -4.21052 -9.35499
upperneck 14.5113 -4.35936 7.04949
head 8.22807 -1.87697 3.33233
rclavicle 7.85199e-015 -3.57812e-015
rhumerus -40.3047 -18.2174 -67.5464
rradius 35.0762
rwrist 1.56344
rhand -13.8148 13.6262
rfingers 7.12502
rthumb 12.3077 -15.9916
lclavicle 7.85199e-015 -3.57812e-015
lhumerus -39.0893 14.0455 76.8028
lradius 32.3986
lwrist -3.37263
lhand -18.924 20.749
lfingers 7.12502
lthumb 7.37853 50.6003
rfemur -7.9488 1.97718 24.6862
rtibia 19.9837
rfoot -11.8479 -9.61357
rtoes 8.42097
lfemur -11.5875 -4.5733 -19.216
ltibia 23.2535
lfoot -12.2777 4.95881
ltoes 0.181669
354
root 0.7799 17.7693 -17.3081 4.58499 -0.7933 0.472584
lowerback 6.98576 -0.31346 -0.979614
upperback 0.149839 -0.431052 1.68299
thorax -3.74363 -0.182239 2.33583
lowerneck -20.766 -4.20951 -9.36802
upperneck 14.753 -4.33169 7.0086
head 8.3513 -1.86508 3.32505
rclavicle -4.96962e-016 -7.55382e-015
rhumerus -40.1982 -18.0696 -67.6279
rradius 35.252
rwrist 1.56261
rhand -13.769 13.7613
rfingers 7.12502
rthumb 12.3519 -15.8538
lclavicle -4.96962e-016 -7.55382e-015
lhumerus -38.9741 13.664 77.0639
lradius 32.917
lwrist -3.71194
lhand -18.6992 21.6739
lfingers 7.12502
lthumb 7.59547 51.5176
rfemur -8.05115 1.93833 24.6902
rtibia 19.9156
rfoot -11.677 -9.77818
rtoes 6.96823
lfemur -11.6518 -4.56045 -19.1849
ltibia 23.2098
lfoot -12.3667 4.74338
ltoes 0.423749
